HIERARCHY
ROOT Bone
{
	OFFSET 0.000000 0.000000 0.000000
	CHANNELS 6 Xposition Yposition Zposition Zrotation Xrotation Yrotation
	JOINT Bone.001
	{
		OFFSET 0.000000 0.000000 10.000000
		CHANNELS 3 Zrotation Xrotation Yrotation
		JOINT Bone.002
		{
			OFFSET 0.000000 0.000000 10.000000
			CHANNELS 3 Zrotation Xrotation Yrotation
			End Site
			{
				OFFSET 10.000000 0.000000 0.000000
			}
		}
	}
}
MOTION
Frames: 4
Frame Time: 0.5
0.000000 0.000000 0.000000 -0.000000 0.000000 -0.000000 0.000000 0.000000 -0.000000 0.000000 -0.000000 0.000000 
0.000000 0.000000 0.000000 -0.000000 0.000000 -0.000000 -0.000000 89.999996 -0.000000 0.000000 0.000000 -0.000000 
0.000000 0.000000 0.000000 -0.000000 0.000000 -0.000000 -0.000000 89.999996 -0.000000 0.000008 -0.000008 -90.000009 
0.000000 0.000000 0.000000 -0.000000 0.000000 -0.000000 -0.000000 89.999996 -0.000000 -0.000000 -0.000015 -180.000005
